<svg xmlns="http://www.w3.org/2000/svg" viewBox="0 0 694.36 128"><defs><style>.cls-1{opacity:0.1;}.cls-2{fill:#dfc0a5;}</style></defs><g id="Calque_2" data-name="Calque 2"><g id="Calque_1-2" data-name="Calque 1"><g class="cls-1"><path class="cls-2" d="M465.62,65.59a3.82,3.82,0,0,0,.05,1.59c3.17,6.65-1.16,9.41-6.45,12.9C438.93,93.49,420.65,108.2,405.8,128H440c5.3-6.19,11-10.2,17.2-14.55a81.93,81.93,0,0,0,6.41-5.67c.35.18.69.55,1.05.74-2.29,6.43-4.59,12-6.88,19.48h26.7c2.93-8.66,5.41-16.4,7.74-24.59,1.82-6.37,2.18-13.25,3-19.85.3-2.26,1.35-3.14,3.6-4.15,3.27-1.47,5.7-4.49,8.84-6.31,10.72-6.22,21.59-12.24,32.43-18.29,1.22-.67,2.69-1,3.9-1.64,16.72-9.51,34.93-15.93,53.29-21.85,11.92-3.85,24.32-6.5,36.62-9.29,4.65-1.05,9.6-.83,14.39-1.44,2.78-.35,5.47-1.36,8.27-1.74a56.17,56.17,0,0,1,7.18,0c-4,6.79-7.46,12.71-10.91,18.65-2.38,4.07-6.26,7.77-3.34,13.11.37.67-.36,2-.83,2.93-2.15,4.34-4.37,8.64-6.59,12.94a12.27,12.27,0,0,1-1.12,1.68C636,74.58,631,81,626.17,87.53c-5,6.81-9.27,14.3-14.51,20.9s-10.47,12.14-16,19.57h40.5a16.13,16.13,0,0,1,1.29-2.63,11.64,11.64,0,0,1,.76-1.08c7.48-11,15.42-21.8,22.22-33.13,3.63-6,5-13.24,7.92-19.72,5.9-13.28,12.78-26.22,18-39.73,3.54-9.24,8.65-18.73,8-29.26,0-.73-.13-.45-.25-2.45H636.6c-4.8,2-9.59,2.17-14.35,3.14-30.92,6.29-60,17.87-88.69,30.11-9.31,4-18,9.37-26.92,14.07-3.59,1.87-7.15,3.87-10.52,5.68C493,40.09,490,26.91,486.72,14.27,485.54,9.63,484.22,6,482.78,0H450.59a131.6,131.6,0,0,0,5.88,17.88A112,112,0,0,1,465.62,65.59Z"/><path class="cls-2" d="M262,27.44c3.3,4.16,5.59,9,8.89,13.15s4.28,7.5,2.17,13.07c-2.77,7.3-3.39,15.53-3.63,23.4-.4,12.63-.11,25.56.7,38.18.26,4.21,1.57,7.81,2.83,12.76h29.53c-.49-5-.9-8.14-1.19-12.11-.53-7.37-1.55-14.86-1.69-22.23-.08-4.13,1.21-8.34,1.87-12.48.47-.11.94-.26,1.41-.38,1.29,2.31,2.61,4.58,3.84,6.91,2.85,5.37,5.9,10.64,8.35,16.17,1.55,3.47,2.11,7.57,3.17,11.23,1.22,4.22,2.45,7.94,3.68,12.89h32.52c-6.37-18.57-15.94-35.06-25-52-4-7.44-9.51-14.29-14.4-21.3a28.85,28.85,0,0,0-4.25-5.28C305,44.36,308,38,310.38,33.4,316.3,22.2,322.23,12,329.73,0H294.46a71.17,71.17,0,0,1-5,10.59c-.66,1.25-1.22,2.81-2.15,4.76-2.4-2.37-4.44-4.56-6.23-6.56C278.62,6.05,276.4,5,274,0H239c2.46,5,4.9,5.85,7.29,8.57C251.65,14.62,257,21.14,262,27.44Z"/><path class="cls-2" d="M140.1,68.06c.46,1.17.85,2.38,1.56,4.37-3-.11-5.21,0-7.39-.3-5.64-.74-11.29-1.51-16.89-2.52-2.89-.52-5.66-1.61-8.51-2.38a52.6,52.6,0,0,0-7.41-1.79,113.07,113.07,0,0,0-38.08,1.88,24.29,24.29,0,0,1-5.05.34c-5.73,0-11.86-.27-17.59,0C26.74,68.23,13,72.77,0,76.28V98.8a277.12,277.12,0,0,1,32.7-7.41c9.58-1.52,19.77-.74,29.56-1.06,13.22-.42,26.54-1.51,39.72-1.08a145.89,145.89,0,0,0,18.23-.11c2-.19,4.53.85,6.3,2,3,2,6.18,1.94,9.7,2,3.85.07,7.67,1.56,11.53,2.33,7.87,1.56,9.26,8.57,12.49,13.83,3.85,6.24,7.81,11.26,11.91,18.69h37.05c-1.63-2.48-2.63-4-2.71-4.76,2.05,1,3.89,2.08,5.7,3,1,.53,2,.49,2.94,1.73h47.81c-10.93-9.9-22.66-16.42-35.55-22.38a41.24,41.24,0,0,1-5.32-3.39A146.65,146.65,0,0,0,182,83.67c-2.6-.77-3.46-2.21-4.45-4.59-2.76-6.54-6.5-12.73-9.59-19.16q-7-14.7-13.71-29.58C151,23,147,15.26,144.94,7.62A48.68,48.68,0,0,1,143,0H116.11a89,89,0,0,0,5,18.35C127.44,34.75,133.76,51.65,140.1,68.06Z"/><path class="cls-2" d="M206.48,123.24c.08.72,1.08,2.28,2.71,4.76h5.93c-1-1.24-2-1.2-2.94-1.73C210.37,125.32,208.53,124.28,206.48,123.24Z"/></g></g></g></svg>