<svg xmlns="http://www.w3.org/2000/svg" viewBox="0 0 76.18 57.45">
    <defs>
        <style>
            .cls-1{fill:#dfc0a5;}
            .cls-1,.cls-2{fill-rule:evenodd;}
            .cls-2{fill:#fff;}
        </style>
    </defs>
    <g id="Calque_2" data-name="Calque 2">
        <g id="Calque_1-2" data-name="Calque 1">
            <path
                class="cls-1"
                d="M36.05,0a6.33,6.33,0,0,0,2.39.33A3.87,3.87,0,0,1,41.2.79a7.56,7.56,0,0,1,3.22,3.79c.23.66.59,1.28.76,2a7.85,7.85,0,0,1,.06,3.13c-.15.94-.22,1.9-.42,2.83-.17.72-.5,1.41-.74,2.11a8.08,8.08,0,0,1-1.33,2.49c-.68.85-1.41,1.65-2.12,2.47,0,.05-.1.08-.13.13a3.32,3.32,0,0,1-1.26,1.18c-.22.1-.21.24-.08.41.5.59,1,1.17,1.48,1.77s1.19,1.53,1.8,2.28A22.89,22.89,0,0,1,45.32,30c.5,1.09,1,2.18,1.49,3.3l.78-.69c.67-.57,1.31-1.2,2-1.71a38.14,38.14,0,0,1,7-4.2c1.19-.52,2.42-1,3.65-1.37A11.85,11.85,0,0,1,62.08,25c.33-.06.46.07.56.44a6.6,6.6,0,0,1-.16,2.73c-.19,1.31-.54,2.59-.8,3.89A15.07,15.07,0,0,1,61.37,34c-.37,1.13-.84,2.24-1.28,3.36a1,1,0,0,0,0,.1A12.21,12.21,0,0,1,58.24,41c-.06.1-.1.21-.18.38a5.83,5.83,0,0,0,.58-.08,8.87,8.87,0,0,1,2.52.1,17.71,17.71,0,0,1,4.57.89,2.44,2.44,0,0,1,1.56,1,.67.67,0,0,0,.27.18c.56.23,1.1.51,1.67.69a12.94,12.94,0,0,1,2.24,1.4,8,8,0,0,0,.72.35c.88.41,1.77.81,2.65,1.23.17.09.28.28.44.39a6.55,6.55,0,0,0,.58.32c.11.06.21.14.32.21a2.75,2.75,0,0,1-.19.28,10.35,10.35,0,0,1-.89,1,8.92,8.92,0,0,1-.79.51c-.17.12-.28.32-.45.44-.54.37-1.09.72-1.64,1.08a6.59,6.59,0,0,0-.75.51,12,12,0,0,1-4.38,2.46c-.5.17-1,.38-1.48.56-.3.1-.62.13-.92.24a26.26,26.26,0,0,1-5.27,1.46c-1.48.23-3,.34-4.47.49-1.05.1-2.1.19-3.16.26-.54,0-1.08,0-1.62,0l-2.6.07a13.19,13.19,0,0,1-3.75-.49c-1.53-.4-3.07-.81-4.59-1.25a2,2,0,0,0-1.13,0c-.77.21-1.57.31-2.35.45l-3,.53c-1,.17-1.95.35-2.93.49s-1.77.28-2.66.32c-1.35.06-2.7.05-4.05,0-1,0-2-.17-3-.16a15,15,0,0,1-3.9-.41c-.88-.23-1.74-.5-2.6-.79-1.06-.35-2.14-.67-3.16-1.12a28.6,28.6,0,0,1-4-1.73c-.52-.34-1.15-.51-1.69-.82C3.59,51.73,2.46,51,1.35,50.29a3.62,3.62,0,0,1-.7-.88A4.58,4.58,0,0,0,.3,49c-.09-.09-.3-.15-.3-.22a.87.87,0,0,1,.16-.55,14.62,14.62,0,0,1,1.15-1.33,26.18,26.18,0,0,1,2-1.82A9.77,9.77,0,0,1,5,44a19.81,19.81,0,0,1,3.6-1.64c.48-.12,1-.19,1.46-.29a2,2,0,0,0,.42-.11,9,9,0,0,1,3.18-.82,4.87,4.87,0,0,1,.66,0c.26,0,.51.07.76.07.49,0,1,0,1.48-.06.18,0,.37-.05.62-.09-.09-.17-.15-.27-.21-.37l-2.49-4.13A18.6,18.6,0,0,1,13,32.79a21.93,21.93,0,0,1-1-4.29c-.1-.81-.16-1.61-.25-2.42a2.25,2.25,0,0,1-.06-.36,1.94,1.94,0,0,1,.14-.76.7.7,0,0,1,.91-.41c.79.31,1.59.61,2.37.93.43.16.85.33,1.26.53,1.18.6,2.35,1.22,3.52,1.82.4.21.82.38,1.22.59s1,.54,1.53.86q2.13,1.42,4.23,2.9c.36.25.67.56,1,.84.19.15.39.28.64.46,0-.2.06-.32.1-.45a6.7,6.7,0,0,1,.4-1.41c.63-1.26,1.26-2.52,2-3.72a20.75,20.75,0,0,1,1.7-2.07c.24-.31.44-.65.68-1,.45-.57.91-1.13,1.37-1.69l1.39-1.69c-.75-.94-1.54-1.85-2.25-2.82s-1.38-2-2.06-3a9,9,0,0,1-1.25-3.12c-.18-.86-.4-1.72-.56-2.58a11.66,11.66,0,0,1,.38-5,6.78,6.78,0,0,1,1.05-2.3,8.07,8.07,0,0,1,1-1s.07,0,.09-.06a4.8,4.8,0,0,1,2-1.29A7.19,7.19,0,0,1,35.75,0ZM33.91,54.49l0-.09c-.17-.09-.34-.2-.51-.28-.8-.34-1.61-.64-2.39-1a30.61,30.61,0,0,1-5.93-3.63,42,42,0,0,1-5.66-5.41c-.37-.42-.61-1-1.31-1a4.87,4.87,0,0,0-1,0,1.37,1.37,0,0,1-.85,0,1,1,0,0,0-.57-.07,13,13,0,0,1-1.53.32c-1.13.18-2.22.5-3.33.76a20.06,20.06,0,0,0-2.46.6A24.07,24.07,0,0,0,3,47.6c-.12.09-.29.13-.42.22-.28.17-.55.37-.83.56l.14.17a25.53,25.53,0,0,0,2.23,1.36c1.2.59,2.44,1.09,3.67,1.6a26.64,26.64,0,0,0,5.58,1.84,2.52,2.52,0,0,1,.54.21c.15.07.27.2.42.23,1.24.18,2.47.36,3.71.52,1.75.21,3.49.39,5.23.57.29,0,.59,0,.88,0,1.18,0,2.35.06,3.53.07.63,0,1.25-.07,1.88-.11,1,0,1.94-.1,2.91-.17C33,54.63,33.43,54.55,33.91,54.49Zm8.31.13,0,.1.29,0c.69,0,1.39,0,2.08.06,1,.05,2,.18,3.05.17,1.62,0,3.23-.13,4.84-.21.64,0,1.29-.09,1.93-.19,1.91-.31,3.82-.65,5.72-1a34.75,34.75,0,0,0,4.29-1,26.9,26.9,0,0,0,4-1.4A14.81,14.81,0,0,0,72.3,49c.24-.23.44-.5.7-.79a4.29,4.29,0,0,0-.78-.61c-.7-.38-1.43-.72-2.15-1.06a14.46,14.46,0,0,1-1.49-.69,25.61,25.61,0,0,0-3.68-1.41c-.15-.06-.34,0-.5,0A13.36,13.36,0,0,0,62.26,44c-1.78-.09-3.56-.06-5.34-.1a1,1,0,0,0-.82.38,28,28,0,0,1-2.44,2.65c-1.28,1.11-2.44,2.34-3.82,3.34A27.57,27.57,0,0,1,44,53.78C43.37,54,42.8,54.34,42.22,54.62ZM37.31,22.67l-.67.81a26.37,26.37,0,0,0-2.06,2.67,53.09,53.09,0,0,0-2.65,5,21.81,21.81,0,0,0-1.16,3.59c-.12.45-.27,1,.31,1.39a2.93,2.93,0,0,1,.46.4,20.82,20.82,0,0,1,1.59,1.67,32.48,32.48,0,0,1,3.23,4.57,17,17,0,0,1,1.54,3.32,1.56,1.56,0,0,0,.15.34c.37-.67.74-1.32,1.08-2,.45-.88.89-1.76,1.29-2.65a19.81,19.81,0,0,1,3.75-5.43c.39-.4.71-.7.32-1.25a.24.24,0,0,1,0-.14,10.83,10.83,0,0,0-1.63-4.12c-.36-.54-.62-1.14-.95-1.7s-.68-1.1-1-1.66-.47-.82-.71-1.23a.79.79,0,0,0-.23-.28,6.78,6.78,0,0,1-2.27-2.76C37.59,23.08,37.48,23,37.31,22.67Zm23,4.73a3.73,3.73,0,0,0-.6.12c-.23.08-.44.22-.67.3a11.74,11.74,0,0,0-1.19.37c-1,.46-2,.91-2.92,1.46a23,23,0,0,0-4.11,2.88c-.09.08-.21.13-.3.21-.81.73-1.62,1.46-2.41,2.2a8.77,8.77,0,0,1-.63.72c-.17.13-.25.22-.23.43a12.55,12.55,0,0,1,.1,1.83,20.15,20.15,0,0,1-.93,5.45c-.24.68-.57,1.32-.85,2a5.36,5.36,0,0,0-.17.57,1,1,0,0,0,.38-.18c.83-.55,1.64-1.14,2.5-1.62a25.5,25.5,0,0,1,5.54-2.07.7.7,0,0,0,.34-.18c.34-.43.66-.86,1-1.3a23.77,23.77,0,0,0,2.38-4.23c.33-.68.56-1.41.86-2.11s.59-1.33.89-2a1.22,1.22,0,0,0,.07-.17c.11-.43.22-.86.32-1.28,0-.1.06-.23,0-.28-.34-.44-.08-.84,0-1.24C59.94,28.67,60.13,28.08,60.34,27.4ZM29.58,44.58l.08-.07c-.06-.1-.12-.2-.17-.3a8.58,8.58,0,0,1-.65-1.46q-.45-1.7-.75-3.42A7.23,7.23,0,0,1,28,37.16,1.11,1.11,0,0,0,27.55,36c-.35-.32-.63-.72-1-1-.54-.48-1.1-.93-1.66-1.39-.4-.33-.8-.65-1.22-.95-.86-.64-1.73-1.27-2.6-1.9a.8.8,0,0,0-.23-.1c-.22-.09-.45-.16-.66-.27a15.16,15.16,0,0,0-2.31-1.09,7.72,7.72,0,0,1-2-.89c-.52-.32-1.06-.61-1.6-.9a6,6,0,0,0-.63-.23c.06.32.1.56.14.79a19.49,19.49,0,0,0,.6,2.87c.54,1.47,1.21,2.89,1.89,4.3a14.15,14.15,0,0,0,1.19,1.85c.55.82,1.11,1.63,1.69,2.44.38.53.81,1,1.16,1.57a.55.55,0,0,0,.46.33,12,12,0,0,1,3.71,1,3.59,3.59,0,0,0,.51.2,15.42,15.42,0,0,1,3.58,1.5C28.94,44.27,29.26,44.42,29.58,44.58ZM39.8,2.06l0,.06c0,.08.09.17.13.26A13.62,13.62,0,0,1,41.26,6.5a5.51,5.51,0,0,1-.71,3.55c-.17.26-.42.48-.58.75a2.94,2.94,0,0,1-4,1.13,2.52,2.52,0,0,1-.7-.39A8.15,8.15,0,0,1,33.7,9.22a5.74,5.74,0,0,1-.36-1.44,3.72,3.72,0,0,1-.11-1.23c.13-.86.35-1.7.54-2.57-.1.2-.22.39-.31.58a13.62,13.62,0,0,0-.85,3.83,10.3,10.3,0,0,0,.33,3.35,10.25,10.25,0,0,0,.63,1.53A17,17,0,0,0,35.63,17c.71,1,1.45,1.93,2.25,3l1.31-1.66a6.17,6.17,0,0,0,.48-.66c.37-.7.74-1.41,1.08-2.13s.68-1.38,1-2.1a9.77,9.77,0,0,0,.76-2.37,10.54,10.54,0,0,0-.07-4.47c-.15-.45-.26-.92-.4-1.39a8,8,0,0,0-2-3A.7.7,0,0,0,39.8,2.06Zm-.27,48.71.17.06c.1-.12.22-.22.31-.34.88-1.2,1.77-2.38,2.63-3.59.47-.66.9-1.35,1.31-2a6.64,6.64,0,0,0,.79-2.78,1.1,1.1,0,0,0,0-.18c.13-1,.26-2,.38-3l-.1,0a4.51,4.51,0,0,1-.44.61A23.52,23.52,0,0,0,41.32,45a21.32,21.32,0,0,0-.84,2c-.16.42-.26.87-.38,1.3s-.22.63-.29.95C39.7,49.76,39.62,50.26,39.53,50.77Zm-2.39-48-1,2.12a1.6,1.6,0,0,0-.1.23c-.67,2-.24,3.12,1.12,4.61a.69.69,0,0,0,1.17-.17,4.81,4.81,0,0,0,.77-2,4.35,4.35,0,0,0-.85-3.32A.94.94,0,0,1,38,3.83C38,3.29,37.54,3.07,37.14,2.76Zm-.75,46.93.11-.06a3.18,3.18,0,0,0-.14-.53c-.31-.72-.61-1.44-1-2.15-.82-1.68-1.67-3.35-2.5-5a8.24,8.24,0,0,0-.47-.94c-.3-.46-.66-.88-1-1.32L31,39.1l-.11.06a7.33,7.33,0,0,0,.07,1.15c.14.66.36,1.31.54,2a25.39,25.39,0,0,0,1.79,4.62.64.64,0,0,0,.24.25c.25.19.55.32.78.53.62.58,1.21,1.19,1.81,1.78A2.92,2.92,0,0,0,36.39,49.69Zm-2.46,2.08c0-.09-.09-.19-.15-.28l-1.4-1.93a2.55,2.55,0,0,0-.41-.5c-.85-.63-1.7-1.29-2.59-1.87a21.51,21.51,0,0,0-5.24-2.48l-.53-.16c.13.41,4.1,3.48,4.84,4A48.18,48.18,0,0,0,33.93,51.77Zm6.84.65a.47.47,0,0,0,0,.1,1.89,1.89,0,0,0,.33-.13c.93-.49,1.86-1,2.78-1.49.37-.2.83-.13,1.14-.48a4.51,4.51,0,0,1,.64-.49l1.48-1c.39-.28.76-.57,1.14-.87a5.64,5.64,0,0,0,.92-.76,6,6,0,0,0,.56-1.07C46.5,47.92,43.71,50.27,40.77,52.42Z"
            />
            <path
                class="cls-2"
                d="M33.91,54.49c-.48.06-.95.14-1.42.17-1,.07-1.94.12-2.91.17-.63,0-1.25.11-1.88.11-1.18,0-2.35,0-3.53-.07-.29,0-.59,0-.88,0-1.74-.18-3.48-.36-5.23-.57-1.24-.16-2.47-.34-3.71-.52-.15,0-.27-.16-.42-.23a2.52,2.52,0,0,0-.54-.21,26.64,26.64,0,0,1-5.58-1.84c-1.23-.51-2.47-1-3.67-1.6a25.53,25.53,0,0,1-2.23-1.36l-.14-.17c.28-.19.55-.39.83-.56.13-.09.3-.13.42-.22a24.07,24.07,0,0,1,5.37-3,20.06,20.06,0,0,1,2.46-.6c1.11-.26,2.2-.58,3.33-.76A13,13,0,0,0,15.71,43a1,1,0,0,1,.57.07,1.37,1.37,0,0,0,.85,0,4.87,4.87,0,0,1,1,0c.7,0,.94.59,1.31,1a42,42,0,0,0,5.66,5.41A30.61,30.61,0,0,0,31,53.11c.78.37,1.59.67,2.39,1,.17.08.34.19.51.28Z"
            />
            <path
                class="cls-2"
                d="M42.22,54.62c.58-.28,1.15-.6,1.75-.84a27.57,27.57,0,0,0,5.87-3.53c1.38-1,2.54-2.23,3.82-3.34a28,28,0,0,0,2.44-2.65,1,1,0,0,1,.82-.38c1.78,0,3.56,0,5.34.1a13.36,13.36,0,0,1,2.14.45c.16,0,.35,0,.5,0a25.61,25.61,0,0,1,3.68,1.41,14.46,14.46,0,0,0,1.49.69c.72.34,1.45.68,2.15,1.06a4.29,4.29,0,0,1,.78.61c-.26.29-.46.56-.7.79a14.81,14.81,0,0,1-3.8,2.14,26.9,26.9,0,0,1-4,1.4,34.75,34.75,0,0,1-4.29,1c-1.9.32-3.81.66-5.72,1-.64.1-1.29.15-1.93.19-1.61.08-3.22.19-4.84.21-1,0-2-.12-3.05-.17-.69,0-1.39,0-2.08-.06l-.29,0Z"
            />
            <path
                class="cls-2"
                d="M37.31,22.67c.17.28.28.41.35.56A6.78,6.78,0,0,0,39.93,26a.79.79,0,0,1,.23.28c.24.41.46.82.71,1.23s.69,1.1,1,1.66.59,1.16.95,1.7A10.83,10.83,0,0,1,44.46,35a.24.24,0,0,0,0,.14c.39.55.07.85-.32,1.25a19.81,19.81,0,0,0-3.75,5.43c-.4.89-.84,1.77-1.29,2.65-.34.66-.71,1.31-1.08,2a1.56,1.56,0,0,1-.15-.34,17,17,0,0,0-1.54-3.32,32.48,32.48,0,0,0-3.23-4.57,20.82,20.82,0,0,0-1.59-1.67,2.93,2.93,0,0,0-.46-.4c-.58-.36-.43-.94-.31-1.39a21.81,21.81,0,0,1,1.16-3.59,53.09,53.09,0,0,1,2.65-5,26.37,26.37,0,0,1,2.06-2.67Z"
            />
            <path
                class="cls-2"
                d="M60.34,27.4c-.21.68-.4,1.27-.58,1.87-.13.4-.39.8,0,1.24,0,0,0,.18,0,.28-.1.42-.21.85-.32,1.28a1.22,1.22,0,0,1-.07.17c-.3.67-.61,1.33-.89,2s-.53,1.43-.86,2.11a23.77,23.77,0,0,1-2.38,4.23c-.33.44-.65.87-1,1.3a.7.7,0,0,1-.34.18,25.5,25.5,0,0,0-5.54,2.07c-.86.48-1.67,1.07-2.5,1.62a1,1,0,0,1-.38.18,5.36,5.36,0,0,1,.17-.57c.28-.67.61-1.31.85-2a20.15,20.15,0,0,0,.93-5.45,12.55,12.55,0,0,0-.1-1.83c0-.21.06-.3.23-.43a8.77,8.77,0,0,0,.63-.72c.79-.74,1.6-1.47,2.41-2.2.09-.08.21-.13.3-.21A23,23,0,0,1,55,29.65c.93-.55,1.93-1,2.92-1.46a11.74,11.74,0,0,1,1.19-.37c.23-.08.44-.22.67-.3A3.73,3.73,0,0,1,60.34,27.4Z"
            />
            <path
                class="cls-2"
                d="M29.58,44.58c-.32-.16-.64-.31-.95-.48a15.42,15.42,0,0,0-3.58-1.5,3.59,3.59,0,0,1-.51-.2,12,12,0,0,0-3.71-1,.55.55,0,0,1-.46-.33c-.35-.55-.78-1-1.16-1.57-.58-.81-1.14-1.62-1.69-2.44a14.15,14.15,0,0,1-1.19-1.85c-.68-1.41-1.35-2.83-1.89-4.3a19.49,19.49,0,0,1-.6-2.87c0-.23-.08-.47-.14-.79a6,6,0,0,1,.63.23c.54.29,1.08.58,1.6.9a7.72,7.72,0,0,0,2,.89,15.16,15.16,0,0,1,2.31,1.09c.21.11.44.18.66.27a.8.8,0,0,1,.23.1c.87.63,1.74,1.26,2.6,1.9.42.3.82.62,1.22.95.56.46,1.12.91,1.66,1.39.35.32.63.72,1,1A1.11,1.11,0,0,1,28,37.16a7.23,7.23,0,0,0,.12,2.17q.3,1.72.75,3.42a8.58,8.58,0,0,0,.65,1.46c.05.1.11.2.17.3Z"
            />
            <path
                class="cls-2"
                d="M39.8,2.06a.7.7,0,0,1,.24.13,8,8,0,0,1,2,3c.14.47.25.94.4,1.39a10.54,10.54,0,0,1,.07,4.47,9.77,9.77,0,0,1-.76,2.37c-.28.72-.62,1.41-1,2.1S40,17,39.67,17.68a6.17,6.17,0,0,1-.48.66L37.88,20c-.8-1.07-1.54-2-2.25-3a17,17,0,0,1-2.06-3.73,10.25,10.25,0,0,1-.63-1.53,10.3,10.3,0,0,1-.33-3.35,13.62,13.62,0,0,1,.85-3.83c.09-.19.21-.38.31-.58-.19.87-.41,1.71-.54,2.57a3.72,3.72,0,0,0,.11,1.23,5.74,5.74,0,0,0,.36,1.44,8.15,8.15,0,0,0,1.58,2.32,2.52,2.52,0,0,0,.7.39,2.94,2.94,0,0,0,4-1.13c.16-.27.41-.49.58-.75a5.51,5.51,0,0,0,.71-3.55,13.62,13.62,0,0,0-1.38-4.12c0-.09-.09-.18-.13-.26Z"
            />
            <path
                class="cls-2"
                d="M39.53,50.77c.09-.51.17-1,.28-1.51.07-.32.19-.63.29-.95s.22-.88.38-1.3a21.32,21.32,0,0,1,.84-2,23.52,23.52,0,0,1,3.28-5.55,4.51,4.51,0,0,0,.44-.61l.1,0c-.12,1-.25,2-.38,3a1.1,1.1,0,0,1,0,.18A6.64,6.64,0,0,1,44,44.85c-.41.7-.84,1.39-1.31,2-.86,1.21-1.75,2.39-2.63,3.59-.09.12-.21.22-.31.34Z"
            />
            <path
                class="cls-2"
                d="M37.14,2.76c.4.31.81.53.88,1.07a.94.94,0,0,0,.19.39,4.35,4.35,0,0,1,.85,3.32,4.81,4.81,0,0,1-.77,2,.69.69,0,0,1-1.17.17C35.76,8.23,35.33,7.14,36,5.11a1.6,1.6,0,0,1,.1-.23Z"
            />
            <path
                class="cls-2"
                d="M36.39,49.69a2.92,2.92,0,0,1-.29-.23c-.6-.59-1.19-1.2-1.81-1.78-.23-.21-.53-.34-.78-.53a.64.64,0,0,1-.24-.25,25.39,25.39,0,0,1-1.79-4.62c-.18-.66-.4-1.31-.54-2a7.33,7.33,0,0,1-.07-1.15L31,39.1l.46.56c.33.44.69.86,1,1.32a8.24,8.24,0,0,1,.47.94c.83,1.68,1.68,3.35,2.5,5,.35.71.65,1.43,1,2.15a3.18,3.18,0,0,1,.14.53Z"
            />
            <path
                class="cls-2"
                d="M33.93,51.77a48.18,48.18,0,0,1-5.48-3.21c-.74-.53-4.71-3.6-4.84-4l.53.16a21.51,21.51,0,0,1,5.24,2.48c.89.58,1.74,1.24,2.59,1.87a2.55,2.55,0,0,1,.41.5l1.4,1.93C33.84,51.58,33.88,51.68,33.93,51.77Z"
            />
            <path
                class="cls-2"
                d="M40.77,52.42c2.94-2.15,5.73-4.5,9-6.19a6,6,0,0,1-.56,1.07,5.64,5.64,0,0,1-.92.76c-.38.3-.75.59-1.14.87l-1.48,1a4.51,4.51,0,0,0-.64.49c-.31.35-.77.28-1.14.48-.92.51-1.85,1-2.78,1.49a1.89,1.89,0,0,1-.33.13A.47.47,0,0,1,40.77,52.42Z"
            />
        </g>
    </g>
</svg>
