<svg xmlns="http://www.w3.org/2000/svg" viewBox="0 0 114.54 101"><defs><style>.cls-1{fill:#dfc0a5;fill-rule:evenodd;}.cls-2{fill:#fcf6f2;}</style></defs><g id="Calque_2" data-name="Calque 2"><g id="Calque_1-2" data-name="Calque 1"><path class="cls-1" d="M51.35,13.28a9.16,9.16,0,0,0,3.4.47,5.51,5.51,0,0,1,3.94.66,10.7,10.7,0,0,1,4.58,5.39c.33.94.84,1.83,1.08,2.78A11.16,11.16,0,0,1,64.43,27c-.2,1.34-.3,2.71-.59,4a29.63,29.63,0,0,1-1.05,3,11.83,11.83,0,0,1-1.89,3.56c-1,1.2-2,2.34-3,3.51-.06.07-.14.11-.18.19A4.66,4.66,0,0,1,55.89,43c-.3.15-.3.35-.1.59.7.84,1.41,1.67,2.09,2.52.87,1.07,1.71,2.17,2.57,3.25a32.12,32.12,0,0,1,4.1,6.69c.72,1.55,1.41,3.11,2.12,4.7l1.12-1c1-.82,1.86-1.71,2.88-2.44a53.33,53.33,0,0,1,9.9-6c1.69-.74,3.44-1.37,5.19-2a18.13,18.13,0,0,1,2.68-.51c.46-.07.65.11.78.63A9.25,9.25,0,0,1,89,53.41c-.27,1.87-.77,3.7-1.14,5.55a24.65,24.65,0,0,1-.44,2.73c-.53,1.62-1.21,3.19-1.82,4.79a.91.91,0,0,0-.07.14A17.13,17.13,0,0,1,83,71.7a3.45,3.45,0,0,0-.26.54c.35,0,.59-.06.82-.12a12.77,12.77,0,0,1,3.6.15,24.78,24.78,0,0,1,6.5,1.26,3.5,3.5,0,0,1,2.23,1.35.83.83,0,0,0,.39.25c.79.34,1.56.73,2.37,1,1.25.4,2.1,1.39,3.19,2,.33.18.68.34,1,.49,1.26.59,2.53,1.16,3.78,1.76.24.12.4.4.63.55s.55.3.82.46.31.2.46.3a3.51,3.51,0,0,1-.27.4,16.76,16.76,0,0,1-1.26,1.4,10.77,10.77,0,0,1-1.13.71c-.24.18-.4.46-.65.63-.76.53-1.55,1-2.33,1.54a7.84,7.84,0,0,0-1.07.74,16.88,16.88,0,0,1-6.24,3.49c-.71.24-1.39.55-2.1.79-.43.15-.89.2-1.31.36a37.1,37.1,0,0,1-7.52,2.07c-2.1.33-4.24.48-6.36.69-1.5.15-3,.29-4.5.39-.76,0-1.53,0-2.3,0q-1.86,0-3.72.09a17.76,17.76,0,0,1-5.33-.71q-3.29-.84-6.55-1.77a2.81,2.81,0,0,0-1.6,0c-1.1.29-2.23.43-3.35.63l-4.27.76c-1.39.24-2.78.5-4.18.7a34.66,34.66,0,0,1-3.79.45c-1.92.08-3.84.08-5.76,0-1.42,0-2.84-.23-4.26-.23a21.62,21.62,0,0,1-5.56-.57c-1.25-.33-2.48-.72-3.7-1.12-1.51-.51-3-1-4.51-1.6C13,90.73,11,90.23,9.16,89.09c-.75-.47-1.64-.71-2.41-1.17q-2.46-1.44-4.83-3a5.41,5.41,0,0,1-1-1.25,6,6,0,0,0-.51-.6C.3,82.93,0,82.84,0,82.74A1.32,1.32,0,0,1,.22,82a22.78,22.78,0,0,1,1.65-1.89,38.13,38.13,0,0,1,2.81-2.59,13.56,13.56,0,0,1,2.48-1.55,27.35,27.35,0,0,1,5.14-2.34c.68-.17,1.38-.27,2.07-.41A2.56,2.56,0,0,0,15,73a13,13,0,0,1,4.53-1.16,5.94,5.94,0,0,1,.94.06c.36,0,.72.1,1.09.1.69,0,1.39-.05,2.09-.09a7.73,7.73,0,0,0,.9-.14c-.14-.23-.22-.38-.3-.52l-3.56-5.88A26.66,26.66,0,0,1,18.48,60,30.5,30.5,0,0,1,17,53.87c-.14-1.15-.24-2.3-.36-3.44,0-.18-.1-.35-.09-.51a2.88,2.88,0,0,1,.2-1.08,1,1,0,0,1,1.3-.59l3.38,1.31c.6.24,1.21.48,1.78.77,1.69.85,3.35,1.74,5,2.6.57.29,1.17.53,1.73.83A24.43,24.43,0,0,1,32.19,55c2,1.35,4,2.73,6,4.12.52.36,1,.81,1.46,1.2.26.22.56.4.91.65.06-.27.09-.46.14-.63a10.12,10.12,0,0,1,.57-2c.89-1.8,1.8-3.6,2.85-5.3a32.11,32.11,0,0,1,2.42-3c.35-.44.63-.93,1-1.36.64-.82,1.3-1.61,1.95-2.41s1.37-1.66,2-2.42c-1.08-1.33-2.19-2.63-3.21-4s-2-2.87-2.93-4.31a12.57,12.57,0,0,1-1.78-4.45c-.26-1.23-.57-2.44-.81-3.67a16.4,16.4,0,0,1,.55-7.1,9.49,9.49,0,0,1,1.49-3.28,12.83,12.83,0,0,1,1.37-1.39s.11-.05.14-.09a6.77,6.77,0,0,1,2.88-1.83,9.3,9.3,0,0,1,1.76-.47ZM48.3,90.89a.65.65,0,0,1,0-.13c-.24-.13-.48-.28-.73-.39-1.13-.48-2.29-.92-3.4-1.44a44,44,0,0,1-8.44-5.17,59.45,59.45,0,0,1-8.07-7.71c-.53-.59-.87-1.43-1.85-1.45a8.82,8.82,0,0,0-1.45,0,2,2,0,0,1-1.22,0,1.26,1.26,0,0,0-.8-.11,16.36,16.36,0,0,1-2.19.45c-1.6.27-3.16.73-4.74,1.1a29.41,29.41,0,0,0-3.51.84,34.55,34.55,0,0,0-7.63,4.24c-.18.13-.42.19-.61.31-.39.25-.78.52-1.19.8a1.41,1.41,0,0,0,.22.24A36.81,36.81,0,0,0,5.9,84.37c1.7.84,3.47,1.54,5.22,2.28a38.41,38.41,0,0,0,8,2.63,3.39,3.39,0,0,1,.78.3c.2.09.38.28.59.31,1.76.26,3.52.53,5.29.74,2.48.3,5,.56,7.45.82.41,0,.83,0,1.24,0,1.68,0,3.36.09,5,.1.89,0,1.78-.1,2.67-.15,1.38-.08,2.77-.14,4.15-.24C47,91.09,47.62,91,48.3,90.89Zm11.84.2a.5.5,0,0,1,0,.13c.14,0,.27,0,.41,0,1,0,2,0,3,.09,1.45.07,2.9.25,4.35.23,2.29,0,4.59-.17,6.88-.29A25.34,25.34,0,0,0,77.54,91c2.72-.44,5.44-.92,8.16-1.39a49.63,49.63,0,0,0,6.1-1.46,36.87,36.87,0,0,0,5.78-2c1.85-.91,3.86-1.59,5.4-3A14.74,14.74,0,0,0,104,82a8,8,0,0,0-1.1-.87c-1-.54-2-1-3.08-1.51a19.23,19.23,0,0,1-2.11-1c-1.63-1-3.53-1.28-5.25-2a4,4,0,0,0-.71-.07,18.23,18.23,0,0,0-3-.65c-2.53-.13-5.07-.08-7.6-.13a1.34,1.34,0,0,0-1.17.53,40.38,40.38,0,0,1-3.48,3.78C74.61,81.67,73,83.43,71,84.85a38.62,38.62,0,0,1-8.36,5C61.78,90.22,61,90.68,60.14,91.09Zm-7-45.53c-.36.44-.66.79-.94,1.16a37.94,37.94,0,0,0-3,3.8,76.75,76.75,0,0,0-3.76,7.12,31.89,31.89,0,0,0-1.66,5.12c-.18.65-.38,1.47.44,2a3.91,3.91,0,0,1,.65.57,30,30,0,0,1,2.28,2.38,46.17,46.17,0,0,1,4.59,6.5A23.69,23.69,0,0,1,54,78.93a2.85,2.85,0,0,0,.22.49c.52-1,1-1.88,1.54-2.83.64-1.25,1.26-2.5,1.84-3.77a28,28,0,0,1,5.34-7.73c.55-.58,1-1,.45-1.79,0,0,0-.13,0-.2A15.21,15.21,0,0,0,61,57.24c-.5-.77-.87-1.63-1.34-2.43s-1-1.57-1.45-2.36c-.35-.58-.66-1.18-1-1.76a1.6,1.6,0,0,0-.33-.4,9.59,9.59,0,0,1-3.24-3.92C53.54,46.16,53.39,46,53.14,45.56ZM86,52.3a6.74,6.74,0,0,0-.86.18c-.33.11-.62.31-1,.42-.56.2-1.16.28-1.69.53-1.41.66-2.83,1.3-4.17,2.08a33.43,33.43,0,0,0-5.85,4.1c-.13.11-.3.19-.43.3-1.14,1-2.3,2.08-3.43,3.14a12.61,12.61,0,0,1-.9,1,.61.61,0,0,0-.33.61,19.13,19.13,0,0,1,.15,2.61,28.38,28.38,0,0,1-1.33,7.76c-.34,1-.81,1.89-1.2,2.84a7.58,7.58,0,0,0-.25.81,1.24,1.24,0,0,0,.54-.26c1.19-.77,2.33-1.63,3.57-2.3a35.7,35.7,0,0,1,7.89-3,.94.94,0,0,0,.47-.26c.49-.61.95-1.23,1.42-1.85a33.93,33.93,0,0,0,3.39-6c.46-1,.8-2,1.22-3s.85-1.9,1.27-2.86a1.33,1.33,0,0,0,.1-.24c.15-.6.31-1.21.46-1.82,0-.13.08-.32,0-.4-.49-.62-.12-1.19.06-1.77ZM42.13,76.78l.11-.1c-.08-.15-.17-.28-.24-.43a14.23,14.23,0,0,1-.93-2.08c-.42-1.61-.78-3.23-1.06-4.87a10.13,10.13,0,0,1-.16-3.1,1.61,1.61,0,0,0-.6-1.63c-.51-.45-.91-1-1.41-1.48-.76-.69-1.56-1.33-2.36-2-.57-.47-1.14-.92-1.73-1.36Q31.91,58.39,30,57a2.52,2.52,0,0,0-.33-.14c-.31-.12-.63-.23-.93-.37A20.65,20.65,0,0,0,25.48,55,11,11,0,0,1,22.7,53.7c-.75-.45-1.52-.87-2.29-1.28a7.13,7.13,0,0,0-.89-.32c.08.45.13.79.2,1.12a27.73,27.73,0,0,0,.85,4.09c.77,2.09,1.72,4.11,2.68,6.12A21,21,0,0,0,25,66.06c.79,1.17,1.59,2.33,2.41,3.48.54.75,1.15,1.46,1.65,2.23.18.29.32.45.65.48A17.42,17.42,0,0,1,35,73.67a6.37,6.37,0,0,0,.72.29,21.34,21.34,0,0,1,5.1,2.13C41.22,76.34,41.68,76.55,42.13,76.78ZM56.69,16.21l-.07.08c.06.12.13.25.18.37.8,1.91,1.8,3.76,2,5.88a7.88,7.88,0,0,1-1,5.05c-.25.38-.59.69-.83,1.07a4.18,4.18,0,0,1-5.68,1.61,3.68,3.68,0,0,1-1-.56A11.76,11.76,0,0,1,48,26.42a8.38,8.38,0,0,1-.52-2.07,5.73,5.73,0,0,1-.15-1.74c.19-1.22.51-2.42.78-3.66-.16.29-.32.55-.44.83a18.91,18.91,0,0,0-1.22,5.44A14.6,14.6,0,0,0,46.93,30a12.07,12.07,0,0,0,.89,2.17,23.76,23.76,0,0,0,2.93,5.32c1,1.39,2.07,2.76,3.2,4.27.66-.83,1.27-1.59,1.87-2.36a6.79,6.79,0,0,0,.68-.94c.54-1,1.06-2,1.55-3s1-2,1.37-3a14.11,14.11,0,0,0,1.07-3.38c.23-2.11.58-4.23-.1-6.36-.2-.64-.37-1.32-.57-2A11.55,11.55,0,0,0,57,16.39,1.28,1.28,0,0,0,56.69,16.21Zm-.38,69.38.23.09c.15-.17.32-.31.45-.49,1.26-1.7,2.52-3.39,3.75-5.11.66-1,1.28-1.92,1.87-2.92a9.47,9.47,0,0,0,1.12-4,2.06,2.06,0,0,1,0-.26l.54-4.34-.14,0a10.68,10.68,0,0,1-.63.87c-2.08,2.32-3.32,5.15-4.67,7.91a30.58,30.58,0,0,0-1.21,2.9c-.22.6-.36,1.24-.54,1.85-.13.46-.3.9-.4,1.36C56.55,84.15,56.44,84.87,56.31,85.59Zm-3.4-68.38c-.53,1.06-1,2-1.49,3a2,2,0,0,0-.14.34c-1,2.88-.34,4.43,1.6,6.56a1,1,0,0,0,1.66-.24A7,7,0,0,0,55.64,24a6.27,6.27,0,0,0-1.22-4.74,1.35,1.35,0,0,1-.27-.55C54.06,18,53.47,17.65,52.91,17.21ZM51.84,84.06,52,84a6.41,6.41,0,0,0-.21-.75c-.44-1-.87-2.06-1.36-3.06-1.17-2.4-2.38-4.78-3.57-7.17a11,11,0,0,0-.66-1.33c-.44-.66-.94-1.27-1.42-1.89-.21-.27-.43-.53-.65-.8a.8.8,0,0,1-.16.08,9.9,9.9,0,0,0,.1,1.64c.21,1,.52,1.87.77,2.81a35.28,35.28,0,0,0,2.55,6.58,1.19,1.19,0,0,0,.34.37,8.31,8.31,0,0,1,1.11.75c.88.82,1.72,1.69,2.59,2.53A4.54,4.54,0,0,0,51.84,84.06Zm-3.51,3a4,4,0,0,0-.22-.4c-.66-.92-1.32-1.84-2-2.75a3.14,3.14,0,0,0-.59-.71c-1.21-.9-2.41-1.83-3.68-2.67A30.58,30.58,0,0,0,34.38,77l-.76-.24c.19.59,5.84,5,6.9,5.72A70.54,70.54,0,0,0,48.33,87Zm9.73.92.09.15a4.62,4.62,0,0,0,.47-.19c1.32-.7,2.65-1.39,4-2.12.52-.29,1.18-.18,1.62-.68a5.16,5.16,0,0,1,.9-.7c.7-.48,1.42-.94,2.11-1.43s1.09-.81,1.63-1.23a7.35,7.35,0,0,0,1.31-1.1,8.17,8.17,0,0,0,.8-1.51C66.23,81.53,62.25,84.89,58.06,87.94Z"/><path class="cls-1" d="M56.31,85.59c.13-.72.24-1.44.4-2.14.1-.46.27-.9.4-1.36.18-.61.32-1.25.54-1.85a30.58,30.58,0,0,1,1.21-2.9c1.35-2.76,2.59-5.59,4.67-7.91a10.68,10.68,0,0,0,.63-.87l.14,0L63.76,73a2.06,2.06,0,0,0,0,.26,9.47,9.47,0,0,1-1.12,4c-.59,1-1.21,2-1.87,2.92-1.23,1.72-2.49,3.41-3.75,5.11-.13.18-.3.32-.45.49Z"/><path class="cls-1" d="M51.84,84.06a4.54,4.54,0,0,1-.41-.33c-.87-.84-1.71-1.71-2.59-2.53a8.31,8.31,0,0,0-1.11-.75,1.19,1.19,0,0,1-.34-.37,35.28,35.28,0,0,1-2.55-6.58c-.25-.94-.56-1.86-.77-2.81a9.9,9.9,0,0,1-.1-1.64.8.8,0,0,0,.16-.08c.22.27.44.53.65.8.48.62,1,1.23,1.42,1.89A11,11,0,0,1,46.86,73c1.19,2.39,2.4,4.77,3.57,7.17.49,1,.92,2,1.36,3.06A6.41,6.41,0,0,1,52,84Z"/><path class="cls-1" d="M48.33,87a70.54,70.54,0,0,1-7.81-4.57c-1.06-.75-6.71-5.13-6.9-5.72l.76.24a30.58,30.58,0,0,1,7.47,3.52c1.27.84,2.47,1.77,3.68,2.67a3.14,3.14,0,0,1,.59.71c.67.91,1.33,1.83,2,2.75A4,4,0,0,1,48.33,87Z"/><path class="cls-1" d="M58.06,87.94c4.19-3,8.17-6.41,12.89-8.81a8.17,8.17,0,0,1-.8,1.51,7.35,7.35,0,0,1-1.31,1.1c-.54.42-1.07.84-1.63,1.23s-1.41,1-2.11,1.43a5.16,5.16,0,0,0-.9.7c-.44.5-1.1.39-1.62.68-1.31.73-2.64,1.42-4,2.12a4.62,4.62,0,0,1-.47.19Z"/><rect class="cls-2" x="53.54" width="61" height="101"/></g></g></svg>